<?xml version="1.0" encoding="utf-8"?>
<!-- Generator: Adobe Illustrator 28.0.0, SVG Export Plug-In . SVG Version: 6.00 Build 0)  -->
<svg version="1.1" id="Capa_2_00000015320940471540792250000003509519642564997261_"
	 xmlns="http://www.w3.org/2000/svg" xmlns:xlink="http://www.w3.org/1999/xlink" x="0px" y="0px" viewBox="0 0 111.9 111.9"
	 style="enable-background:new 0 0 111.9 111.9;" xml:space="preserve">
<style type="text/css">
	.st0{fill:#1A1A1A;}
	.st1{fill:#FFFFFF;}
</style>
<path class="st0" d="M86.3,111.9H25.6c-14,0-25.3-11.3-25.3-25.3V25.3C0.3,11.3,11.6,0,25.6,0h60.7c14,0,25.3,11.3,25.3,25.3v61.3
	C111.6,100.6,100.3,111.9,86.3,111.9z"/>
<path class="st1" d="M53.5,43.8v-4.9h4.9v4.9H53.5z M52.7,33.2c-2.7,0-4.9,2.2-4.9,4.9v0.4h-12c-1.1-2.2-3.3-3.7-5.8-3.7
	c-3.6,0-6.5,2.9-6.5,6.5s2.9,6.5,6.5,6.5c2.6,0,4.8-1.5,5.8-3.7h6.8c-6,4-10,10.7-10.6,18.3h-0.5c-2.7,0-4.9,2.2-4.9,4.9v6.5
	c0,2.7,2.2,4.9,4.9,4.9h6.5c2.7,0,4.9-2.2,4.9-4.9v-6.5c0-2.7-2.2-4.9-4.9-4.9h-0.3c0.6-6.8,4.9-12.5,10.9-15.1
	c0.9,1.3,2.4,2.1,4,2.1h6.5c1.7,0,3.2-0.9,4-2.1c6,2.6,10.3,8.3,10.9,15.1h-0.3c-2.7,0-4.9,2.2-4.9,4.9v6.5c0,2.7,2.2,4.9,4.9,4.9
	h6.5c2.7,0,4.9-2.2,4.9-4.9v-6.5c0-2.7-2.2-4.9-4.9-4.9h-0.5c-0.5-7.6-4.6-14.2-10.6-18.3h6.8c1.1,2.2,3.3,3.7,5.8,3.7
	c3.6,0,6.5-2.9,6.5-6.5s-2.9-6.5-6.5-6.5c-2.6,0-4.8,1.5-5.8,3.7h-12v-0.4c0-2.7-2.2-4.9-4.9-4.9H52.7z M32.4,68.1h4.9V73h-4.9V68.1
	z M74.6,73v-4.9h4.9V73H74.6z"/>
</svg>
