<?xml version="1.0" encoding="utf-8"?>
<!-- Generator: Adobe Illustrator 28.0.0, SVG Export Plug-In . SVG Version: 6.00 Build 0)  -->
<svg version="1.1" id="Capa_2_00000015320940471540792250000003509519642564997261_"
	 xmlns="http://www.w3.org/2000/svg" xmlns:xlink="http://www.w3.org/1999/xlink" x="0px" y="0px" viewBox="0 0 111.9 111.9"
	 style="enable-background:new 0 0 111.9 111.9;" xml:space="preserve">
<style type="text/css">
	.st0{fill:#1A1A1A;}
	.st1{fill:#FFFFFF;}
</style>
<path class="st0" d="M86.3,111.9H25.6c-14,0-25.3-11.3-25.3-25.3V25.3C0.3,11.3,11.6,0,25.6,0h60.7c14,0,25.3,11.3,25.3,25.3v61.3
	C111.6,100.6,100.3,111.9,86.3,111.9z"/>
<path class="st1" d="M90.5,17.3v0.4c0,0,0,0,0,0c0,0,0,0,0,0c-0.1,0.1,0,0.2-0.1,0.3c-0.1,1-0.2,2-0.3,3c-0.2,1.9-0.3,3.9-0.5,5.8
	c-0.2,1.9-0.3,3.8-0.5,5.6c-0.2,2.1-0.4,4.3-0.6,6.4c-0.2,2.1-0.4,4.2-0.6,6.4c-0.2,2.4-0.4,4.7-0.6,7c-0.2,2.4-0.4,4.7-0.6,7
	c-0.2,2.6-0.5,5.1-0.7,7.7c-0.2,2.6-0.5,5.2-0.7,7.7c-0.2,2.8-0.5,5.6-0.8,8.4c-0.2,2.5-0.4,4.9-0.6,7.4c0,0.2-0.1,0.3-0.2,0.3
	c-0.4,0.1-0.8,0.2-1.2,0.3c-6.7,1.9-13.5,3.7-20.2,5.6c-2.4,0.7-4.8,1.3-7.2,2c-0.1,0-0.2,0-0.2,0.1h-0.6c0-0.2-0.1-0.1-0.2-0.1
	c-6.2-1.7-12.5-3.5-18.7-5.2c-3.3-0.9-6.6-1.8-9.9-2.7c-0.1,0-0.2-0.1-0.3-0.3c-0.1-1.8-0.3-3.5-0.5-5.3c-0.2-2.1-0.4-4.2-0.6-6.4
	c-0.2-2.1-0.4-4.3-0.6-6.4c-0.2-2.1-0.4-4.3-0.6-6.4c-0.2-2.1-0.4-4.3-0.6-6.4c-0.2-1.9-0.3-3.8-0.5-5.7c-0.2-2.2-0.4-4.3-0.6-6.5
	c-0.2-1.9-0.3-3.8-0.5-5.6c-0.2-2.2-0.4-4.3-0.6-6.5c-0.2-1.9-0.3-3.8-0.5-5.6c-0.2-2.1-0.4-4.3-0.6-6.4c-0.1-1.6-0.3-3.3-0.4-4.9
	c0-0.1,0-0.2-0.1-0.2v-1c0.1,0,0.3,0,0.5,0c23.6,0,47.3,0,70.9,0C90.1,17.3,90.3,17.3,90.5,17.3L90.5,17.3z M54.5,32.3L54.5,32.3
	c-0.1,0-0.2,0-0.4,0c-7.3,0-14.5,0-21.8,0c-0.1,0-0.1,0-0.2,0c-0.2,0-0.2,0-0.2,0.2c0.3,2.8,0.5,5.6,0.8,8.4c0,0.3,0.1,0.4,0.4,0.4
	c11.2,0,22.4,0,33.6,0c0.1,0,0.2,0,0.2,0c0.2,0,0.2,0.1,0.2,0.2c-0.1,0.7-0.1,1.4-0.2,2.1c-0.2,2.2-0.4,4.4-0.6,6.6
	c0,0.3-0.1,0.3-0.4,0.3c-4,0-8,0-12,0c-6.7,0-13.3,0-20,0c-0.1,0-0.2,0-0.2,0c-0.1,0-0.2,0-0.2,0.2c0.1,0.6,0.1,1.3,0.2,1.9
	c0.2,2.3,0.4,4.6,0.6,6.9h30.8c0.1,0,0.2,0,0.2,0c0.2,0,0.2,0.1,0.2,0.2c-0.1,1.6-0.3,3.1-0.4,4.7c-0.2,2.2-0.4,4.3-0.6,6.5
	c0,0.2-0.1,0.3-0.3,0.4c-3.3,0.9-6.5,1.8-9.8,2.6c-3.3-0.9-6.5-1.8-9.8-2.7c-0.2,0-0.2-0.1-0.2-0.3c0-0.5-0.1-1-0.1-1.6
	c-0.2-1.8-0.3-3.6-0.5-5.4H35c-0.2,0-0.2,0-0.2,0.2c0.1,0.5,0.1,1,0.1,1.5c0.2,1.9,0.3,3.8,0.5,5.7c0.2,2.1,0.4,4.3,0.6,6.4
	c0,0.2,0.1,0.4,0.3,0.4c6,1.7,12,3.3,17.9,5c0.1,0,0.3,0,0.4,0c4.6-1.3,9.2-2.6,13.8-3.8c1.4-0.4,2.8-0.8,4.2-1.2
	c0.1,0,0.2-0.1,0.3-0.3c0.1-1.3,0.2-2.6,0.4-4c0.2-1.9,0.3-3.8,0.5-5.7c0.2-1.9,0.3-3.9,0.5-5.8c0.2-1.9,0.3-3.8,0.5-5.6
	c0.2-2.1,0.4-4.2,0.6-6.3c0.2-1.9,0.3-3.8,0.5-5.7c0.2-2.1,0.4-4.3,0.6-6.4c0.2-1.9,0.3-3.9,0.5-5.9c0-0.3,0-0.4-0.3-0.4
	c-7.3,0-14.6,0-21.9,0L54.5,32.3L54.5,32.3z"/>
</svg>
