<?xml version="1.0" encoding="utf-8"?>
<!-- Generator: Adobe Illustrator 28.0.0, SVG Export Plug-In . SVG Version: 6.00 Build 0)  -->
<svg version="1.1" id="Capa_2_00000168823305101684103760000006430475922207378606_"
	 xmlns="http://www.w3.org/2000/svg" xmlns:xlink="http://www.w3.org/1999/xlink" x="0px" y="0px" viewBox="0 0 111.9 111.9"
	 style="enable-background:new 0 0 111.9 111.9;" xml:space="preserve">
<style type="text/css">
	.st0{fill:#1A1A1A;}
	.st1{fill:#FFFFFF;stroke:#FFFFFF;stroke-width:4;stroke-miterlimit:10;}
</style>
<path class="st0" d="M86.3,111.9H25.6c-14,0-25.3-11.3-25.3-25.3V25.3C0.3,11.3,11.6,0,25.6,0h60.7c14,0,25.3,11.3,25.3,25.3v61.3
	C111.6,100.6,100.3,111.9,86.3,111.9z"/>
<g>
	<path class="st1" d="M22.1,72.5c0.5,0.1,1,0.1,1.4,0.2c2.7,0.5,4.5,2.9,4.4,5.7c-0.1,2.7-2.3,4.8-5,5.1c-2.6,0.2-5-1.5-5.6-4.1
		c-0.6-2.5,0.3-4.6,2.6-6c-0.2-2.9,0.4-5.6,1.5-8.2c1.6-3.9,4-7.3,6.7-10.5c4.6-5.2,9.9-9.5,15.8-13.1c6.1-3.8,12.6-6.7,19.5-8.5
		c0.7-0.2,1.5-0.4,2.2-0.5c0.2,0,0.5-0.1,0.7-0.1c0.5,0,0.8,0.4,1,0.8c0.1,0.4-0.1,1-0.5,1.2c-0.2,0.1-0.4,0.2-0.7,0.2
		c-8.7,2-16.6,5.7-23.9,10.6c-4.8,3.3-9.2,7-13,11.5c-2.5,3-4.7,6.2-6,9.9c-0.6,1.5-0.9,3.1-1.1,4.7C22,71.6,22.1,72,22.1,72.5
		L22.1,72.5z M22.4,74.8c-2.4,0-4.2,2.8-2.3,5.4c2.6,2.1,5.5,0.3,5.5-2.3C25.5,76.2,24.1,74.8,22.4,74.8z"/>
	<path class="st1" d="M60.9,21.7c-0.2,0.3-0.4,0.6-0.6,0.8c-2,2.3-4.7,2.8-8.1,0.9c-2.2-3.1-2.2-6,0.1-8.2c1.6-1.5,3.5-1.9,5.6-1.1
		c2.1,0.8,3.3,2.4,3.5,4.6c0.1,0.6,0.2,0.9,0.7,1.1c2.1,1.2,3.7,2.8,5.2,4.7c2.4,3.1,4.1,6.6,5.5,10.2c1.7,4.7,2.8,9.6,3.3,14.5
		c0.4,3.8,0.6,7.6,0.5,11.4c-0.2,6.1-1,12-2.8,17.8c-0.1,0.3-0.1,0.5-0.2,0.8c-0.3,0.6-0.8,0.8-1.4,0.7c-0.6-0.2-0.9-0.8-0.7-1.4
		c0.2-0.9,0.5-1.9,0.8-2.8c1.1-4.1,1.7-8.2,1.9-12.4c0.2-3.6,0.2-7.3-0.1-10.9c-0.5-6.9-1.9-13.6-4.8-19.9c-1.4-3.1-3.2-6.1-5.7-8.5
		C62.8,23,61.9,22.3,60.9,21.7L60.9,21.7z M59.1,19.2c0-1.8-1.4-3.2-3.1-3.2c-1.7,0-3.1,1.4-3.1,3.1c0,1.7,1.4,3.2,3.2,3.2
		C57.7,22.3,59.1,20.9,59.1,19.2L59.1,19.2z"/>
	<path class="st1" d="M84.7,80.7c-0.2-0.6-0.4-1.1-0.5-1.6c-0.6-3,1.3-5.8,4.3-6.4c2.9-0.6,5.8,1.4,6.3,4.3c0.6,3.1-1.4,5.9-4.5,6.4
		c-1.2,0.2-2.3,0-3.4-0.6c-0.5-0.3-0.9-0.2-1.3,0c-2.2,1.2-4.6,1.7-7,2c-4.8,0.5-9.6-0.1-14.3-1.2c-8.6-2.1-16.4-5.8-23.7-10.8
		c-4.2-2.8-8-6-11.5-9.7c-0.2-0.2-0.3-0.3-0.5-0.5c-0.4-0.5-0.3-1.1,0.1-1.5c0.4-0.4,1-0.4,1.5,0c0.1,0.1,0.2,0.2,0.4,0.3
		c5.6,6,12.1,10.7,19.4,14.4c5.2,2.7,10.7,4.8,16.5,6c3.2,0.7,6.5,1.1,9.9,0.9c2.5-0.1,5-0.5,7.4-1.5C84.1,80.9,84.4,80.8,84.7,80.7
		L84.7,80.7z M86.4,77.9c-0.1,1.6,1.4,3.2,3.2,3.2c1.7,0,3.1-1.4,3.1-3.1c0-1.7-1.4-3.2-3.2-3.2C87.8,74.8,86.4,76.2,86.4,77.9z"/>
	<path class="st1" d="M19.7,44.2c0.1-4.7,2-8.1,6-10.5c2.1-1.2,4.4-1.9,6.8-2.2c3.9-0.6,7.8-0.3,11.7,0.4c0.1,0,0.2,0,0.2,0
		c0.7,0.2,1.1,0.7,1,1.3c-0.1,0.6-0.6,1-1.4,1c-0.9-0.1-1.8-0.2-2.7-0.4c-2.5-0.3-5.1-0.4-7.6-0.1c-2.3,0.2-4.4,0.8-6.5,1.8
		c-2.7,1.4-4.5,3.5-5.1,6.5c-0.4,2-0.2,4,0.4,6c0.5,1.8,1.2,3.5,2.1,5.1c0.1,0.3,0.3,0.6,0.4,0.9c0.2,0.6,0,1.1-0.5,1.4
		c-0.5,0.2-1,0.1-1.4-0.3c-0.1-0.1-0.2-0.2-0.2-0.3c-1.6-2.8-2.8-5.8-3.1-9.1C19.8,45.1,19.7,44.5,19.7,44.2L19.7,44.2z"/>
	<path class="st1" d="M92.2,43.9c0,2.9-0.7,5.4-1.8,7.8C89,55.1,87,58.2,84.6,61c-0.1,0.2-0.3,0.3-0.5,0.4c-0.4,0.3-0.9,0.2-1.3-0.1
		c-0.4-0.3-0.6-0.9-0.3-1.3c0.2-0.3,0.4-0.5,0.6-0.8c2.3-2.8,4.3-5.8,5.6-9.1c0.8-2,1.3-4.1,1.3-6.3c-0.1-3.3-1.5-5.9-4.2-7.7
		c-2-1.3-4.3-2-6.6-2.3c-1-0.1-1.9-0.2-2.9-0.2c-0.2,0-0.4,0-0.7,0c-0.7-0.1-1.1-0.5-1.1-1.1c0-0.6,0.4-1.1,1.1-1.1
		c0.7,0,1.4,0,2,0.1c2.6,0.2,5.1,0.7,7.5,1.8c1.7,0.8,3.2,1.8,4.4,3.2C91.4,38.5,92.3,41.2,92.2,43.9L92.2,43.9z"/>
	<path class="st1" d="M56,98.2c-2.3,0-4.4-0.8-6.4-2c-2-1.2-3.6-2.8-5-4.6c-2.4-3.1-4.1-6.6-5.4-10.2c-0.1-0.2-0.1-0.4-0.1-0.6
		c0-0.5,0.3-0.9,0.7-1.1c0.5-0.2,1,0,1.3,0.4c0.2,0.2,0.3,0.5,0.4,0.8c1.1,2.9,2.4,5.7,4.2,8.2c1.3,1.8,2.7,3.4,4.5,4.7
		c1.4,1,3,1.7,4.7,1.9c2.1,0.3,4-0.2,5.9-1.2c2.3-1.3,4-3.2,5.6-5.3c0.4-0.5,0.7-1,1-1.6c0.1-0.2,0.2-0.4,0.4-0.5
		c0.4-0.4,0.9-0.4,1.3-0.1c0.4,0.3,0.6,0.8,0.5,1.3c0,0.2-0.1,0.3-0.2,0.4c-1.5,2.4-3.2,4.7-5.5,6.5c-1.8,1.4-3.7,2.4-5.9,2.8
		C57.3,98.1,56.6,98.1,56,98.2L56,98.2z"/>
	<path class="st1" d="M52.1,58.1c0-2.2,1.8-3.9,4-3.9c2.1,0,3.9,1.8,3.9,3.9c0,2.2-1.8,3.9-4,3.9C53.8,62,52.1,60.2,52.1,58.1
		L52.1,58.1z"/>
</g>
</svg>
