<?xml version="1.0" encoding="utf-8"?>
<!-- Generator: Adobe Illustrator 28.0.0, SVG Export Plug-In . SVG Version: 6.00 Build 0)  -->
<svg version="1.1" id="Capa_2_00000039113103799969758770000003380717884433766823_"
	 xmlns="http://www.w3.org/2000/svg" xmlns:xlink="http://www.w3.org/1999/xlink" x="0px" y="0px" viewBox="0 0 111.9 111.9"
	 style="enable-background:new 0 0 111.9 111.9;" xml:space="preserve">
<style type="text/css">
	.st0{fill:#1A1A1A;}
	.st1{fill:#FFFFFF;}
</style>
<path class="st0" d="M86.3,111.9H25.6c-14,0-25.3-11.3-25.3-25.3V25.3C0.3,11.3,11.7,0,25.6,0h60.7c14,0,25.3,11.3,25.3,25.3v61.3
	C111.6,100.6,100.3,111.9,86.3,111.9z"/>
<path class="st1" d="M21.3,16.6c1.2,0,2.3,0,3.4,0c21.6,0,43.2,0,64.8,0c1.2,0,1.3,0,1.2,1.2c-0.7,7.8-1.4,15.5-2.1,23.3
	c-0.6,6.9-1.2,13.8-1.8,20.7C86,69.4,85.3,77,84.6,84.7c-0.1,0.6-0.1,1.2-0.1,1.8c0,0.8-0.4,1.2-1.2,1.4c-5,1.3-9.9,2.7-14.9,4.1
	c-3.8,1.1-7.6,2.1-11.4,3.1c-0.7,0.2-1.6,0.2-2.3,0c-8.6-2.4-17.2-4.8-25.9-7.1c-1-0.3-1.4-0.7-1.5-1.8c-0.7-8.4-1.5-16.9-2.2-25.3
	c-0.6-7-1.2-14-1.8-21c-0.7-7.5-1.4-14.9-2-22.4C21.2,17.3,21.3,17,21.3,16.6L21.3,16.6z M43.7,39.9c0.6,0,1,0,1.4,0
	c10.3,0,20.6,0,31,0.1c0.9,0,1.2-0.3,1.2-1.1c0.2-2.2,0.4-4.3,0.6-6.5c0.1-1.4,0.1-1.4-1.4-1.4c-7.6,0-15.1,0-22.7,0
	c-6.2,0-12.4,0-18.5,0c-1.2,0-1.3,0-1.2,1.2c0.7,7.9,1.4,15.8,2.1,23.7c0.2,1.7,0.2,1.7,1.9,1.7c9.1,0,18.2,0,27.3,0
	c0.3,0,0.7,0,1.1,0c0,0.3,0.1,0.5,0.1,0.7c-0.3,3.2-0.6,6.4-0.9,9.6c-0.1,0.7-0.4,1-1,1.1c-2.7,0.7-5.4,1.5-8.1,2.2
	c-0.4,0.1-0.8,0.1-1.2,0c-2.7-0.7-5.4-1.5-8.2-2.2c-0.6-0.2-0.8-0.4-0.9-1c-0.1-1.8-0.3-3.5-0.5-5.3c0-0.6-0.3-0.9-1-0.9
	c-1.8,0-3.6,0-5.3,0c-0.9,0-1.7,0-2.6,0c0,0.2-0.1,0.3-0.1,0.4c0.4,4.3,0.7,8.5,1.1,12.8c0,0.5,0.3,0.8,0.8,0.9
	c5.5,1.5,11,3,16.4,4.5c0.5,0.1,1.2,0.2,1.7,0c4.9-1.3,9.8-2.7,14.8-4.1c2.5-0.7,2.4-0.7,2.6-3.2c0.3-4.1,0.7-8.1,1.1-12.2
	c0.3-3.8,0.7-7.5,1-11.3c0.1-0.7-0.1-1-0.9-1c-6.6,0-13.1,0-19.7,0c-3.5,0-7,0-10.5,0c-0.3,0-0.8-0.3-0.8-0.5
	C44.2,45.4,43.9,42.7,43.7,39.9L43.7,39.9z"/>
</svg>
