<?xml version="1.0" encoding="utf-8"?>
<!-- Generator: Adobe Illustrator 28.0.0, SVG Export Plug-In . SVG Version: 6.00 Build 0)  -->
<svg version="1.1" id="Capa_1" xmlns="http://www.w3.org/2000/svg" xmlns:xlink="http://www.w3.org/1999/xlink" x="0px" y="0px"
	 viewBox="0 0 16 16" style="enable-background:new 0 0 16 16;" xml:space="preserve">
<style type="text/css">
	.st0{fill:#0E0D0D;}
	.st1{fill:#F15A24;}
</style>
<g>
	<path class="st0" d="M12.2,15.4H3.8c-1.8,0-3.2-1.4-3.2-3.2V3.8C0.6,2,2,0.6,3.8,0.6h8.4c1.8,0,3.2,1.4,3.2,3.2v8.4
		C15.4,14,14,15.4,12.2,15.4z"/>
</g>
<g>
	<path class="st1" d="M2.4,7.7L2.4,7.7L7,5.3L6.8,7.1L5,7.9L6.6,9l-0.2,1.7L2.4,7.7z"/>
	<path class="st1" d="M7.6,4.5C7.6,4.3,7.8,4.1,8,4l1.1-0.3l-0.7,7.7c0,0.2-0.2,0.4-0.4,0.5l-1.1,0.3L7.6,4.5z"/>
	<path class="st1" d="M9.2,9L11,8.1l-1.7-1l0-1.7l4.2,2.8l0,0.1l-4.4,2.5L9.2,9z"/>
	<g>
		<path class="st0" d="M8.2,8.5L8.2,8.5C7.9,8.6,7.6,8.4,7.5,8.1l0,0C7.4,7.8,7.6,7.6,7.9,7.5h0c0.3-0.1,0.6,0.1,0.6,0.4l0,0
			C8.6,8.2,8.4,8.4,8.2,8.5z"/>
	</g>
</g>
</svg>
