<?xml version="1.0" encoding="utf-8"?>
<!-- Generator: Adobe Illustrator 28.0.0, SVG Export Plug-In . SVG Version: 6.00 Build 0)  -->
<svg version="1.1" id="Capa_2_00000089548358420475667330000011027175644559526321_"
	 xmlns="http://www.w3.org/2000/svg" xmlns:xlink="http://www.w3.org/1999/xlink" x="0px" y="0px" viewBox="0 0 111.9 111.9"
	 style="enable-background:new 0 0 111.9 111.9;" xml:space="preserve">
<style type="text/css">
	.st0{fill:#1A1A1A;}
	.st1{fill:#FFFFFF;}
</style>
<path class="st0" d="M86.3,111.9H25.6c-14,0-25.3-11.3-25.3-25.3V25.3C0.3,11.3,11.6,0,25.6,0h60.7c14,0,25.3,11.3,25.3,25.3v61.3
	C111.6,100.6,100.3,111.9,86.3,111.9z"/>
<g>
	<path class="st1" d="M63,64.3c0.5,0.7,0.9,1.3,1.4,1.9c2.4,2.8,5.5,3.6,9,2.9c0.7-0.2,1.4-0.5,2.1-0.9c1.9-1.3,2.1-4,0.5-5.6
		c-0.7-0.7-1.6-1.2-2.5-1.7c-1.7-0.8-3.4-1.5-5.1-2.3c-2-0.9-4-1.9-5.7-3.3c-3.7-3.2-4.8-7.4-3.7-12c1.1-4.6,4.3-7,8.7-8
		c2.8-0.6,5.7-0.5,8.4,0.5c2.9,1,5,3,6.5,5.6c0.1,0.1,0,0.4-0.1,0.5c-2.1,1.3-4.1,2.7-6.2,4c-0.3-0.5-0.6-0.9-0.9-1.3
		c-1.3-1.8-3.1-2.5-5.3-2.2c-1.5,0.2-2.6,1-3,2.5c-0.4,1.5-0.2,2.9,1.1,4c0.7,0.6,1.5,1.1,2.4,1.5c1.8,0.8,3.6,1.5,5.3,2.4
		c1.6,0.8,3.2,1.7,4.7,2.7c3.7,2.6,5.1,6.4,4.7,10.9c-0.4,4.7-3,7.9-7.3,9.4c-5.7,2-11.3,1.6-16.6-1.6c-2.2-1.3-3.8-3.2-5.1-5.4
		c-0.1-0.2-0.3-0.5,0.1-0.7C58.7,66.8,60.8,65.6,63,64.3L63,64.3z"/>
	<path class="st1" d="M26.5,69.2c2.3-1.4,4.5-2.7,6.8-4.1c0.1,0.2,0.2,0.3,0.3,0.4c0.3,0.5,0.7,1.1,1,1.6c1.4,2,3.3,2.6,5.6,2.1
		c1.3-0.3,2.2-1.1,2.6-2.4c0.2-1,0.4-2,0.4-3c0-9.1,0-18.2,0-27.4c0-0.2-0.1-0.4,0-0.6c0.1-0.2,0.3-0.4,0.4-0.4c2.5,0,5.1,0,7.6,0
		c0.3,0,0.5,0.1,0.4,0.5c0,0.1,0,0.2,0,0.3c0,9.2,0,18.4,0,27.6c0,1.7-0.1,3.4-0.6,5c-1.1,3.8-3.6,6.4-7.5,7.4
		c-3.5,0.9-7.1,0.9-10.5-0.6c-3-1.2-5-3.4-6.4-6.2C26.6,69.4,26.5,69.3,26.5,69.2L26.5,69.2z"/>
</g>
</svg>
