<?xml version="1.0" encoding="utf-8"?>
<!-- Generator: Adobe Illustrator 28.0.0, SVG Export Plug-In . SVG Version: 6.00 Build 0)  -->
<svg version="1.1" id="Capa_2_00000167362692424255539580000016028305000749120928_"
	 xmlns="http://www.w3.org/2000/svg" xmlns:xlink="http://www.w3.org/1999/xlink" x="0px" y="0px" viewBox="0 0 111.9 111.9"
	 style="enable-background:new 0 0 111.9 111.9;" xml:space="preserve">
<style type="text/css">
	.st0{fill:#1A1A1A;}
	.st1{fill:#FFFFFF;}
</style>
<path class="st0" d="M86.3,111.9H25.6c-14,0-25.3-11.3-25.3-25.3V25.3C0.3,11.3,11.6,0,25.6,0h60.7c14,0,25.3,11.3,25.3,25.3v61.3
	C111.6,100.6,100.3,111.9,86.3,111.9z"/>
<g>
	<path class="st1" d="M17.8,58.7c0-6.2,0-12.4,0-18.5c0-2.8,1.2-4.8,3.6-6.2c6.1-3.5,12.2-7,18.2-10.5c4.6-2.7,9.2-5.4,13.9-8
		c2.3-1.3,4.7-1.3,7,0.1c7.4,4.2,14.7,8.5,22.1,12.8c3.4,2,6.9,3.9,10.3,6c2.1,1.3,3.3,3.2,3.3,5.7c0,12.5,0,25,0,37.5
		c0,2.5-1.2,4.5-3.3,5.8c-3,1.8-6.1,3.6-9.2,5.3C75.9,93,68.2,97.5,60.5,102c-2.3,1.3-4.6,1.3-6.9,0c-3.7-2.1-7.3-4.3-10.9-6.4
		c-0.3-0.2-0.5-0.5-0.8-0.8c0.3-0.2,0.6-0.4,1-0.5c1.4-0.7,2.9-1.3,4.3-2c0.4-0.2,0.8-0.2,1.2,0c2.7,1.6,5.3,3.1,8,4.7
		c0.5,0.3,0.9,0.3,1.5,0c4.8-2.8,9.6-5.5,14.4-8.3c5.8-3.4,11.6-6.7,17.5-10.1c0.7-0.4,1-0.8,1-1.7c0-12.2,0-24.5,0-36.7
		c0-0.7-0.3-1.1-0.9-1.5C82,34.4,74.4,30,66.8,25.6c-3-1.8-6.1-3.5-9.1-5.2c-0.5-0.3-1-0.3-1.5,0c-7.3,4.2-14.7,8.5-22,12.7
		c-3.3,1.9-6.6,3.8-10,5.7c-0.6,0.4-0.9,0.8-0.9,1.5c0,4.1,0,8.2,0,12.3c0,8,0,16.1,0,24.1c0,0.9,0.3,1.4,1.1,1.9
		c2.7,1.5,5.3,3.1,8,4.6c1.3,0.8,2.7,1.2,4.2,1.1c2.2-0.1,4-1.9,4-4.1c0-6.5,0-13.1,0-19.6c0-5.7,0-11.4,0-17.1c0-1,0.3-1.3,1.3-1.3
		c1.2,0,2.3,0,3.4,0c0.9,0,1.2,0.3,1.2,1.2c0,12.2,0,24.4,0,36.6c0,2.3-0.4,4.5-1.7,6.5c-1.4,2.1-3.5,3.1-6,3.5
		c-3.7,0.6-7-0.5-10.1-2.3c-2.6-1.5-5.2-3-7.8-4.5c-2.1-1.3-3.3-3.2-3.3-5.7C17.8,71.2,17.8,65,17.8,58.7L17.8,58.7z"/>
	<path class="st1" d="M66.9,77.2c-3.1-0.1-6.2-0.3-9.2-1.4c-2.9-1-5.3-2.6-6.7-5.5c-0.8-1.6-1.1-3.3-1.1-5c0-0.6,0.3-0.9,0.9-0.9
		c1.4,0,2.8,0,4.1,0c0.5,0,0.8,0.3,0.9,0.8c0.2,1.1,0.4,2.2,1,3.2c1,1.6,2.6,2.3,4.3,2.7c3.8,0.7,7.5,0.8,11.3,0
		c1.6-0.3,3-0.9,3.8-2.5c0.5-1,0.6-2.1,0.4-3.2c-0.2-0.8-0.7-1.3-1.4-1.7c-1.4-0.8-2.9-1.1-4.4-1.4c-2.6-0.4-5.2-0.7-7.8-1
		c-2.6-0.4-5.2-0.8-7.7-2c-3-1.5-4.3-4-4.4-7.2c-0.1-4.4,2.2-7.5,6-9.2c2.3-1,4.8-1.5,7.4-1.6c3.2-0.1,6.4,0,9.5,1
		c3.7,1.1,6.3,3.3,7.4,7.1c0.3,1,0.4,2,0.6,3c0.1,0.7-0.2,1-1,1.1c-1.3,0-2.6,0-4,0c-0.6,0-0.8-0.2-1-0.8c-0.3-1.1-0.6-2.2-1.3-3.1
		c-1-1.3-2.3-2-3.9-2.3c-3.1-0.6-6.3-0.7-9.4,0c-1.4,0.3-2.8,0.8-3.5,2.2c-0.5,1-0.6,2-0.3,3.1c0.2,0.6,0.6,1,1.2,1.3
		c1.3,0.7,2.8,1,4.2,1.2c3.4,0.6,6.9,1,10.3,1.6c2.2,0.4,4.3,1,6.2,2.1c2,1.2,3.2,2.8,3.5,5.1c0.3,1.8,0.3,3.6-0.3,5.3
		c-0.9,2.8-2.8,4.7-5.4,5.9c-1.9,0.9-3.9,1.4-6,1.7C69.8,77,68.4,77.1,66.9,77.2L66.9,77.2z"/>
</g>
</svg>
